<svg width="380" height="24" viewBox="0 0 380 24" fill="none" xmlns="http://www.w3.org/2000/svg">
<path d="M4.432 0.599998H0.208V23H4.432V0.599998ZM23.864 0.599998V15.672H23.608L13.528 0.599998H9.208V23H13.336V8.024H13.592L23.672 23H27.992V0.599998H23.864ZM47.7318 0.599998H30.8358V4.376H37.1718V23H41.3958V4.376H47.7318V0.599998ZM54.7423 19.32V13.432H64.1183V9.848H54.7423V4.28H65.6223V0.599998H50.6143V23H65.9423V19.32H54.7423ZM86.511 23L81.359 13.496C84.015 12.472 85.679 10.232 85.679 7.192C85.679 3.256 82.927 0.599998 78.447 0.599998H69.583V23H73.711V14.264H77.359L82.031 23H86.511ZM73.711 4.184H77.967C80.143 4.184 81.455 5.432 81.455 7.416C81.455 9.304 80.143 10.68 77.967 10.68H73.711V4.184ZM104.427 0.599998V15.672H104.171L94.0905 0.599998H89.7705V23H93.8985V8.024H94.1545L104.235 23H108.555V0.599998H104.427ZM127.779 23H132.291L124.323 0.599998H119.235L111.235 23H115.747L117.571 17.592H125.955L127.779 23ZM118.723 14.104L121.635 5.464H121.891L124.803 14.104H118.723ZM148.232 0.599998H131.336V4.376H137.672V23H141.896V4.376H148.232V0.599998ZM155.338 0.599998H151.114V23H155.338V0.599998ZM170.651 23.32C177.307 23.32 182.107 18.328 182.107 11.8C182.107 5.24 177.243 0.279999 170.651 0.279999C164.027 0.279999 159.195 5.24 159.195 11.8C159.195 18.392 164.059 23.32 170.651 23.32ZM170.683 19.416C166.555 19.416 163.515 16.152 163.515 11.8C163.515 7.448 166.555 4.184 170.651 4.184C174.747 4.184 177.787 7.448 177.787 11.8C177.787 16.152 174.779 19.416 170.683 19.416ZM200.614 0.599998V15.672H200.358L190.278 0.599998H185.958V23H190.086V8.024H190.342L200.422 23H204.742V0.599998H200.614ZM223.966 23H228.478L220.51 0.599998H215.422L207.422 23H211.934L213.758 17.592H222.142L223.966 23ZM214.91 14.104L217.822 5.464H218.078L220.99 14.104H214.91ZM235.336 19.224V0.599998H231.208V23H246.504V19.224H235.336ZM280.892 0.599998L277.532 16.792H277.276L273.148 2.2H268.668L264.476 16.792H264.22L260.924 0.599998H256.828L261.724 23H266.396L270.748 7.608H271.004L275.42 23H280.092L284.956 0.599998H280.892ZM301.685 23H306.197L298.229 0.599998H293.141L285.141 23H289.653L291.477 17.592H299.861L301.685 23ZM292.629 14.104L295.541 5.464H295.797L298.709 14.104H292.629ZM322.138 0.599998H305.242V4.376H311.578V23H315.802V4.376H322.138V0.599998ZM329.149 19.32V13.432H338.525V9.848H329.149V4.28H340.029V0.599998H325.021V23H340.349V19.32H329.149ZM360.917 23L355.765 13.496C358.421 12.472 360.085 10.232 360.085 7.192C360.085 3.256 357.333 0.599998 352.853 0.599998H343.989V23H348.117V14.264H351.765L356.437 23H360.917ZM348.117 4.184H352.373C354.549 4.184 355.861 5.432 355.861 7.416C355.861 9.304 354.549 10.68 352.373 10.68H348.117V4.184ZM379.292 16.856C379.292 12.184 375.196 10.68 373.084 10.04L371.964 9.688C370.076 9.112 368.124 8.472 368.124 6.552C368.124 4.92 369.5 3.864 371.484 3.864C373.628 3.864 374.748 5.112 374.94 6.872H379.1C378.972 3.064 376.06 0.279999 371.452 0.279999C367.132 0.279999 363.868 2.744 363.868 6.744C363.868 10.456 366.748 12.152 369.5 12.984L370.78 13.368C372.828 13.976 375.036 14.712 375.036 16.984C375.036 18.936 373.436 19.736 371.516 19.736C368.956 19.736 367.516 18.392 367.324 16.152H363.164C363.324 20.44 366.172 23.32 371.516 23.32C375.644 23.32 379.292 21.24 379.292 16.856Z" fill="#0000FF"/>
</svg>
