<svg width="1440" height="48" viewBox="0 0 1440 48" fill="none" xmlns="http://www.w3.org/2000/svg">
<path d="M719.934 0C719.976 0.792 720 1.596 720 2.4C720 14.3347 715.259 25.7807 706.82 34.2198C698.381 42.659 686.935 47.4 675 47.4C663.065 47.4 651.619 42.659 643.18 34.2198C634.741 25.7807 630 14.3347 630 2.4C630 1.596 630 0.792 630.066 0C630.689 11.4961 635.695 22.316 644.053 30.2335C652.412 38.151 663.487 42.5637 675 42.5637C686.513 42.5637 697.588 38.151 705.946 30.2335C714.305 22.316 719.311 11.4961 719.934 0Z" fill="#0000FF"/>
<path d="M629.934 0C629.976 0.792 630 1.596 630 2.4C630 14.3347 625.259 25.7807 616.82 34.2198C608.381 42.659 596.935 47.4 585 47.4C573.065 47.4 561.619 42.659 553.18 34.2198C544.741 25.7807 540 14.3347 540 2.4C540 1.596 540 0.792 540.066 0C540.689 11.4961 545.695 22.316 554.054 30.2335C562.412 38.151 573.487 42.5637 585 42.5637C596.513 42.5637 607.588 38.151 615.946 30.2335C624.305 22.316 629.311 11.4961 629.934 0Z" fill="#0000FF"/>
<path d="M539.934 0C539.976 0.792 540 1.596 540 2.4C540 14.3347 535.259 25.7807 526.82 34.2198C518.381 42.659 506.935 47.4 495 47.4C483.065 47.4 471.619 42.659 463.18 34.2198C454.741 25.7807 450 14.3347 450 2.4C450 1.596 450 0.792 450.066 0C450.689 11.4961 455.695 22.316 464.054 30.2335C472.412 38.151 483.487 42.5637 495 42.5637C506.513 42.5637 517.588 38.151 525.946 30.2335C534.305 22.316 539.311 11.4961 539.934 0Z" fill="#0000FF"/>
<path d="M449.934 0C449.976 0.792 450 1.596 450 2.4C450 14.3347 445.259 25.7807 436.82 34.2198C428.381 42.659 416.935 47.4 405 47.4C393.065 47.4 381.619 42.659 373.18 34.2198C364.741 25.7807 360 14.3347 360 2.4C360 1.596 360 0.792 360.066 0C360.689 11.4961 365.695 22.316 374.054 30.2335C382.412 38.151 393.487 42.5637 405 42.5637C416.513 42.5637 427.588 38.151 435.946 30.2335C444.305 22.316 449.311 11.4961 449.934 0Z" fill="#0000FF"/>
<path d="M359.934 0C359.976 0.792 360 1.596 360 2.4C360 14.3347 355.259 25.7807 346.82 34.2198C338.381 42.659 326.935 47.4 315 47.4C303.065 47.4 291.619 42.659 283.18 34.2198C274.741 25.7807 270 14.3347 270 2.4C270 1.596 270 0.792 270.066 0C270.689 11.4961 275.695 22.316 284.054 30.2335C292.412 38.151 303.487 42.5637 315 42.5637C326.513 42.5637 337.588 38.151 345.946 30.2335C354.305 22.316 359.311 11.4961 359.934 0Z" fill="#0000FF"/>
<path d="M269.934 0C269.976 0.792 270 1.596 270 2.4C270 14.3347 265.259 25.7807 256.82 34.2198C248.381 42.659 236.935 47.4 225 47.4C213.065 47.4 201.619 42.659 193.18 34.2198C184.741 25.7807 180 14.3347 180 2.4C180 1.596 180 0.792 180.066 0C180.689 11.4961 185.695 22.316 194.054 30.2335C202.412 38.151 213.487 42.5637 225 42.5637C236.513 42.5637 247.588 38.151 255.946 30.2335C264.305 22.316 269.311 11.4961 269.934 0Z" fill="#0000FF"/>
<path d="M179.934 0C179.976 0.792 180 1.596 180 2.4C180 14.3347 175.259 25.7807 166.82 34.2198C158.381 42.659 146.935 47.4 135 47.4C123.065 47.4 111.619 42.659 103.18 34.2198C94.7411 25.7807 90 14.3347 90 2.4C90 1.596 90 0.792 90.066 0C90.6893 11.4961 95.6952 22.316 104.054 30.2335C112.412 38.151 123.487 42.5637 135 42.5637C146.513 42.5637 157.588 38.151 165.946 30.2335C174.305 22.316 179.311 11.4961 179.934 0Z" fill="#0000FF"/>
<path d="M89.934 0C89.976 0.792 90 1.596 90 2.4C90 14.3347 85.2589 25.7807 76.8198 34.2198C68.3807 42.659 56.9347 47.4 45 47.4C33.0653 47.4 21.6193 42.659 13.1802 34.2198C4.74106 25.7807 0 14.3347 0 2.4C0 1.596 3.66569e-07 0.792 0.0660004 0C0.689318 11.4961 5.69517 22.316 14.0536 30.2335C22.4119 38.151 33.487 42.5637 45 42.5637C56.513 42.5637 67.5881 38.151 75.9465 30.2335C84.3048 22.316 89.3107 11.4961 89.934 0Z" fill="#0000FF"/>
<path d="M1439.93 0C1439.98 0.792 1440 1.596 1440 2.4C1440 14.3347 1435.26 25.7807 1426.82 34.2198C1418.38 42.659 1406.93 47.4 1395 47.4C1383.07 47.4 1371.62 42.659 1363.18 34.2198C1354.74 25.7807 1350 14.3347 1350 2.4C1350 1.596 1350 0.792 1350.07 0C1350.69 11.4961 1355.7 22.316 1364.05 30.2335C1372.41 38.151 1383.49 42.5637 1395 42.5637C1406.51 42.5637 1417.59 38.151 1425.95 30.2335C1434.3 22.316 1439.31 11.4961 1439.93 0Z" fill="#0000FF"/>
<path d="M1349.93 0C1349.98 0.792 1350 1.596 1350 2.4C1350 14.3347 1345.26 25.7807 1336.82 34.2198C1328.38 42.659 1316.93 47.4 1305 47.4C1293.07 47.4 1281.62 42.659 1273.18 34.2198C1264.74 25.7807 1260 14.3347 1260 2.4C1260 1.596 1260 0.792 1260.07 0C1260.69 11.4961 1265.7 22.316 1274.05 30.2335C1282.41 38.151 1293.49 42.5637 1305 42.5637C1316.51 42.5637 1327.59 38.151 1335.95 30.2335C1344.3 22.316 1349.31 11.4961 1349.93 0Z" fill="#0000FF"/>
<path d="M1259.93 0C1259.98 0.792 1260 1.596 1260 2.4C1260 14.3347 1255.26 25.7807 1246.82 34.2198C1238.38 42.659 1226.93 47.4 1215 47.4C1203.07 47.4 1191.62 42.659 1183.18 34.2198C1174.74 25.7807 1170 14.3347 1170 2.4C1170 1.596 1170 0.792 1170.07 0C1170.69 11.4961 1175.7 22.316 1184.05 30.2335C1192.41 38.151 1203.49 42.5637 1215 42.5637C1226.51 42.5637 1237.59 38.151 1245.95 30.2335C1254.3 22.316 1259.31 11.4961 1259.93 0Z" fill="#0000FF"/>
<path d="M1169.93 0C1169.98 0.792 1170 1.596 1170 2.4C1170 14.3347 1165.26 25.7807 1156.82 34.2198C1148.38 42.659 1136.93 47.4 1125 47.4C1113.07 47.4 1101.62 42.659 1093.18 34.2198C1084.74 25.7807 1080 14.3347 1080 2.4C1080 1.596 1080 0.792 1080.07 0C1080.69 11.4961 1085.7 22.316 1094.05 30.2335C1102.41 38.151 1113.49 42.5637 1125 42.5637C1136.51 42.5637 1147.59 38.151 1155.95 30.2335C1164.3 22.316 1169.31 11.4961 1169.93 0Z" fill="#0000FF"/>
<path d="M1079.93 0C1079.98 0.792 1080 1.596 1080 2.4C1080 14.3347 1075.26 25.7807 1066.82 34.2198C1058.38 42.659 1046.93 47.4 1035 47.4C1023.07 47.4 1011.62 42.659 1003.18 34.2198C994.741 25.7807 990 14.3347 990 2.4C990 1.596 990 0.792 990.066 0C990.689 11.4961 995.695 22.316 1004.05 30.2335C1012.41 38.151 1023.49 42.5637 1035 42.5637C1046.51 42.5637 1057.59 38.151 1065.95 30.2335C1074.3 22.316 1079.31 11.4961 1079.93 0Z" fill="#0000FF"/>
<path d="M989.934 0C989.976 0.792 990 1.596 990 2.4C990 14.3347 985.259 25.7807 976.82 34.2198C968.381 42.659 956.935 47.4 945 47.4C933.065 47.4 921.619 42.659 913.18 34.2198C904.741 25.7807 900 14.3347 900 2.4C900 1.596 900 0.792 900.066 0C900.689 11.4961 905.695 22.316 914.054 30.2335C922.412 38.151 933.487 42.5637 945 42.5637C956.513 42.5637 967.588 38.151 975.946 30.2335C984.305 22.316 989.311 11.4961 989.934 0Z" fill="#0000FF"/>
<path d="M899.934 0C899.976 0.792 900 1.596 900 2.4C900 14.3347 895.259 25.7807 886.82 34.2198C878.381 42.659 866.935 47.4 855 47.4C843.065 47.4 831.619 42.659 823.18 34.2198C814.741 25.7807 810 14.3347 810 2.4C810 1.596 810 0.792 810.066 0C810.689 11.4961 815.695 22.316 824.054 30.2335C832.412 38.151 843.487 42.5637 855 42.5637C866.513 42.5637 877.588 38.151 885.946 30.2335C894.305 22.316 899.311 11.4961 899.934 0Z" fill="#0000FF"/>
<path d="M809.934 0C809.976 0.792 810 1.596 810 2.4C810 14.3347 805.259 25.7807 796.82 34.2198C788.381 42.659 776.935 47.4 765 47.4C753.065 47.4 741.619 42.659 733.18 34.2198C724.741 25.7807 720 14.3347 720 2.4C720 1.596 720 0.792 720.066 0C720.689 11.4961 725.695 22.316 734.054 30.2335C742.412 38.151 753.487 42.5637 765 42.5637C776.513 42.5637 787.588 38.151 795.946 30.2335C804.305 22.316 809.311 11.4961 809.934 0Z" fill="#0000FF"/>
</svg>
