<svg width="1440" height="132" viewBox="0 0 1440 132" fill="none" xmlns="http://www.w3.org/2000/svg">
<path d="M1440 0V132H720H0V0C0 23.8588 9.48212 46.7405 26.3604 63.6112C43.2387 80.482 66.1305 89.9598 90 89.9598C113.869 89.9598 136.761 80.482 153.64 63.6112C170.518 46.7405 180 23.8588 180 0C180 23.8588 189.482 46.7405 206.36 63.6112C223.239 80.482 246.131 89.9598 270 89.9598C293.869 89.9598 316.761 80.482 333.64 63.6112C350.518 46.7405 360 23.8588 360 0C360 23.8588 369.482 46.7405 386.36 63.6112C403.239 80.482 426.131 89.9598 450 89.9598C473.87 89.9598 496.761 80.482 513.64 63.6112C530.518 46.7405 540 23.8588 540 0C540 23.8588 549.482 46.7405 566.36 63.6112C583.239 80.482 606.131 89.9598 630 89.9598C653.869 89.9598 676.761 80.482 693.64 63.6112C710.518 46.7405 720 23.8588 720 0C720 23.8588 729.482 46.7405 746.36 63.6112C763.239 80.482 786.131 89.9598 810 89.9598C833.87 89.9598 856.761 80.482 873.64 63.6112C890.518 46.7405 900 23.8588 900 0C900 23.8588 909.482 46.7405 926.36 63.6112C943.239 80.482 966.131 89.9598 990 89.9598C1013.87 89.9598 1036.76 80.482 1053.64 63.6112C1070.52 46.7405 1080 23.8588 1080 0C1080 23.8588 1089.48 46.7405 1106.36 63.6112C1123.24 80.482 1146.13 89.9598 1170 89.9598C1193.87 89.9598 1216.76 80.482 1233.64 63.6112C1250.52 46.7405 1260 23.8588 1260 0C1260 23.8588 1269.48 46.7405 1286.36 63.6112C1303.24 80.482 1326.13 89.9598 1350 89.9598C1373.87 89.9598 1396.76 80.482 1413.64 63.6112C1430.52 46.7405 1440 23.8588 1440 0Z" fill="#0000FF"/>
</svg>
