<svg width="1440" height="158" viewBox="0 0 1440 158" fill="none" xmlns="http://www.w3.org/2000/svg">
<path fill-rule="evenodd" clip-rule="evenodd" d="M1440 0H0V68C0 91.8589 9.48212 114.74 26.3604 131.611C43.2387 148.482 66.1305 157.96 90 157.96C113.869 157.96 136.761 148.482 153.64 131.611C170.518 114.74 180 91.8589 180 68C180 91.8589 189.482 114.74 206.36 131.611C223.239 148.482 246.131 157.96 270 157.96C293.869 157.96 316.761 148.482 333.64 131.611C350.518 114.74 360 91.8589 360 68C360 91.8589 369.482 114.74 386.36 131.611C403.239 148.482 426.131 157.96 450 157.96C473.87 157.96 496.761 148.482 513.64 131.611C530.518 114.74 540 91.8589 540 68C540 91.8589 549.482 114.74 566.36 131.611C583.239 148.482 606.13 157.96 630 157.96C653.87 157.96 676.761 148.482 693.64 131.611C710.518 114.74 720 91.8589 720 68C720 91.8589 729.482 114.74 746.36 131.611C763.239 148.482 786.131 157.96 810 157.96C833.87 157.96 856.761 148.482 873.64 131.611C890.518 114.74 900 91.8589 900 68C900 91.8589 909.482 114.74 926.36 131.611C943.239 148.482 966.131 157.96 990 157.96C1013.87 157.96 1036.76 148.482 1053.64 131.611C1070.52 114.74 1080 91.8589 1080 68C1080 91.8589 1089.48 114.74 1106.36 131.611C1123.24 148.482 1146.13 157.96 1170 157.96C1193.87 157.96 1216.76 148.482 1233.64 131.611C1250.52 114.74 1260 91.8589 1260 68C1260 91.8589 1269.48 114.74 1286.36 131.611C1303.24 148.482 1326.13 157.96 1350 157.96C1373.87 157.96 1396.76 148.482 1413.64 131.611C1430.52 114.74 1440 91.8589 1440 68V0Z" fill="white"/>
<path fill-rule="evenodd" clip-rule="evenodd" d="M1440 68V51C1440 74.8589 1430.52 97.7405 1413.64 114.611C1396.76 131.482 1373.87 140.96 1350 140.96C1326.13 140.96 1303.24 131.482 1286.36 114.611C1269.48 97.7405 1260 74.8589 1260 51C1260 74.8589 1250.52 97.7405 1233.64 114.611C1216.76 131.482 1193.87 140.96 1170 140.96C1146.13 140.96 1123.24 131.482 1106.36 114.611C1089.48 97.7405 1080 74.8589 1080 51C1080 74.8589 1070.52 97.7405 1053.64 114.611C1036.76 131.482 1013.87 140.96 990 140.96C966.131 140.96 943.239 131.482 926.36 114.611C909.482 97.7405 900 74.8589 900 51C900 74.8589 890.518 97.7405 873.64 114.611C856.761 131.482 833.87 140.96 810 140.96C786.131 140.96 763.239 131.482 746.36 114.611C729.482 97.7405 720 74.8589 720 51C720 74.8589 710.518 97.7405 693.64 114.611C676.761 131.482 653.869 140.96 630 140.96C606.131 140.96 583.239 131.482 566.36 114.611C549.482 97.7405 540 74.8589 540 51C540 74.8589 530.518 97.7405 513.64 114.611C496.761 131.482 473.87 140.96 450 140.96C426.131 140.96 403.239 131.482 386.36 114.611C369.482 97.7405 360 74.8589 360 51C360 74.8589 350.518 97.7405 333.64 114.611C316.761 131.482 293.869 140.96 270 140.96C246.131 140.96 223.239 131.482 206.36 114.611C189.482 97.7405 180 74.8589 180 51C180 74.8589 170.518 97.7405 153.64 114.611C136.761 131.482 113.869 140.96 90 140.96C66.1305 140.96 43.2387 131.482 26.3604 114.611C9.48212 97.7405 0 74.8589 0 51V68C0 91.8589 9.48212 114.74 26.3604 131.611C43.2387 148.482 66.1305 157.96 90 157.96C113.869 157.96 136.761 148.482 153.64 131.611C170.518 114.74 180 91.8589 180 68C180 91.8589 189.482 114.74 206.36 131.611C223.239 148.482 246.131 157.96 270 157.96C293.869 157.96 316.761 148.482 333.64 131.611C350.518 114.74 360 91.8589 360 68C360 91.8589 369.482 114.74 386.36 131.611C403.239 148.482 426.131 157.96 450 157.96C473.87 157.96 496.761 148.482 513.64 131.611C530.518 114.74 540 91.8589 540 68C540 91.8589 549.482 114.74 566.36 131.611C583.239 148.482 606.131 157.96 630 157.96C653.869 157.96 676.761 148.482 693.64 131.611C710.518 114.74 720 91.8589 720 68C720 91.8589 729.482 114.74 746.36 131.611C763.239 148.482 786.131 157.96 810 157.96C833.87 157.96 856.761 148.482 873.64 131.611C890.518 114.74 900 91.8589 900 68C900 91.8589 909.482 114.74 926.36 131.611C943.239 148.482 966.131 157.96 990 157.96C1013.87 157.96 1036.76 148.482 1053.64 131.611C1070.52 114.74 1080 91.8589 1080 68C1080 91.8589 1089.48 114.74 1106.36 131.611C1123.24 148.482 1146.13 157.96 1170 157.96C1193.87 157.96 1216.76 148.482 1233.64 131.611C1250.52 114.74 1260 91.8589 1260 68C1260 91.8589 1269.48 114.74 1286.36 131.611C1303.24 148.482 1326.13 157.96 1350 157.96C1373.87 157.96 1396.76 148.482 1413.64 131.611C1430.52 114.74 1440 91.8589 1440 68Z" fill="#0000FF"/>
</svg>
